<?xml version="1.0" encoding="UTF-8" standalone="no"?>
<!-- Created with Inkscape (http://www.inkscape.org/) -->

<svg
   version="1.1"
   id="svg1"
   width="110"
   height="38"
   viewBox="0 0 110 38.000002"
   xml:space="preserve"
   xmlns="http://www.w3.org/2000/svg"
   xmlns:svg="http://www.w3.org/2000/svg"><defs
     id="defs1" /><g
     id="layer1"
     transform="translate(-3861.3479,-1102.8039)"><path
       id="path29"
       style="display:inline;opacity:1;fill:#f43327;fill-opacity:1;stroke-width:22.2107;paint-order:markers stroke fill"
       d="m 3971.3479,1140.8038 -110.0001,-3 2,-31 103.327,-4 z" /><path
       style="-inkscape-font-specification:Mojangles;fill-opacity:0.471606;paint-order:markers stroke fill"
       d="m 3882.6582,1111.1406 v 2.0098 h -2 v 17.3164 h 2 v 2 h 69.3789 v -21.3262 h -9.3027 v 4.0098 h -40.7578 v -4.0098 z"
       id="path34" /><path
       style="-inkscape-font-specification:Mojangles;fill:#ffffff;paint-order:markers stroke fill"
       d="m 3886.3104,1128.8163 v -2.001 h 6.012 v 2.001 z m 6.012,-2.001 v -2.001 h 2.001 v 2.001 z m -8.013,0 v -10.014 h 2.001 v 10.014 z m 8.013,-8.013 v -2.001 h 2.001 v 2.001 z m -6.012,-2.001 v -2.01 h 6.012 v 2.01 z m 12.015,12.015 v -2.001 h 2.001 v 2.001 z m -2.001,-2.001 v -12.024 h 2.001 v 12.024 z m 8.004,2.001 v -2.001 h 6.012 v 2.001 z m -2.001,-2.001 v -6.012 h 2.001 v 6.012 z m 8.013,0 v -6.012 h 2.001 v 6.012 z m -6.012,-6.012 v -2.001 h 6.012 v 2.001 z m 10.014,8.013 v -2.001 h 8.013 v 2.001 z m 8.013,-2.001 v -2.001 h 2.001 v 2.001 z m -6.012,-2.001 v -2.01 h 6.012 v 2.01 z m -2.001,-2.01 v -2.001 h 2.001 v 2.001 z m 2.001,-2.001 v -2.001 h 8.013 v 2.001 z m 12.015,8.013 v -2.001 h 8.013 v 2.001 z m -2.001,-2.001 v -6.012 h 2.001 v 2.001 h 6.012 v -2.001 h 2.001 v 4.011 h -8.013 v 2.001 z m 2.001,-6.012 v -2.001 h 6.012 v 2.001 z m 10.014,6.012 v -6.012 h 2.001 v 6.012 z m 2.001,-6.012 v -2.001 h 4.011 v 2.001 z m 0,8.013 v -2.001 h 6.012 v -4.011 h -2.001 v -2.001 h 2.001 v -6.012 h 2.001 v 14.025 z"
       id="path35" /></g></svg>
