<?xml version="1.0" encoding="UTF-8" standalone="no"?>
<!-- Created with Inkscape (http://www.inkscape.org/) -->

<svg
   version="1.1"
   id="svg1"
   width="110"
   height="38"
   viewBox="0 0 110 38.000002"
   xml:space="preserve"
   xmlns="http://www.w3.org/2000/svg"
   xmlns:svg="http://www.w3.org/2000/svg"><defs
     id="defs1" /><g
     id="layer1"
     transform="translate(-3708.3479,-1102.8039)"><path
       id="path28"
       style="display:inline;opacity:1;fill:#77df2b;fill-opacity:1;stroke-width:22.2107;paint-order:markers stroke fill"
       d="m 3708.3478,1102.8038 110.0001,3 -2,31 -103.327,4 z" /><path
       style="-inkscape-font-specification:Mojangles;fill-opacity:0.471606;paint-order:markers stroke fill"
       d="m 3738.668,1111.1406 v 2.0098 h -2.002 v 17.3164 h 2.002 v 2 h 10.0136 v 4.0039 h 9.3047 v -4.0039 h 32.043 v -15.3145 h -2.002 v -2.0019 h -34.0429 v -2 h -2.002 v -2.0098 z"
       id="path32" /><path
       style="-inkscape-font-specification:Mojangles;fill:#ffffff;paint-order:markers stroke fill"
       d="m 3742.3194,1128.8163 v -2.001 h 6.012 v 2.001 z m -2.001,-2.001 v -10.014 h 2.001 v 10.014 z m 8.013,0 v -10.014 h 2.001 v 10.014 z m -6.012,-10.014 v -2.01 h 6.012 v 2.01 z m 18.027,10.014 v -6.012 h 2.001 v 6.012 z m -8.013,6.003 v -14.016 h 2.001 v 2.001 h 2.001 v 2.001 h -2.001 v 4.011 h 6.012 v 2.001 h -6.012 v 4.002 z m 4.002,-12.015 v -2.001 h 4.011 v 2.001 z m 10.014,8.013 v -2.001 h 8.013 v 2.001 z m -2.001,-2.001 v -6.012 h 2.001 v 2.001 h 6.012 v -2.001 h 2.001 v 4.011 h -8.013 v 2.001 z m 2.001,-6.012 v -2.001 h 6.012 v 2.001 z m 18.027,8.013 v -8.013 h 2.0009 v 8.013 z m -8.0131,0 v -10.014 h 8.0131 v 2.001 h -6.0121 v 8.013 z"
       id="path33" /></g></svg>
