<?xml version="1.0" encoding="UTF-8" standalone="no"?>
<!-- Created with Inkscape (http://www.inkscape.org/) -->

<svg
   version="1.1"
   id="svg1"
   width="171"
   height="38"
   viewBox="0 0 171 38.000002"
   xml:space="preserve"
   xmlns="http://www.w3.org/2000/svg"
   xmlns:svg="http://www.w3.org/2000/svg"><defs
     id="defs1" /><g
     id="layer1"
     transform="translate(-3880,-871.99995)"><path
       id="path47"
       style="display:inline;opacity:1;fill:#af2c4c;fill-opacity:1;stroke-width:25.8928;paint-order:markers stroke fill"
       d="m 4051,871.99995 -171,3 6,35 160,-3 z" /><path
       style="-inkscape-font-specification:Mojangles;fill-opacity:0.471606;paint-order:markers stroke fill"
       d="m 3890.3489,880.34845 v 21.32812 h 148.4726 v -2.00195 h 2 v -15.31445 h -14.0156 v -4.01172 h -9.3047 v 4.01172 h -32.7441 v -4.01172 h -17.3164 v 6.01172 h -1.7012 v -2 h -22.0293 v -4.01172 h -9.3027 v 4.01172 h -26.7422 v -2.00196 h -2 v -2.00976 z"
       id="path48" /><path
       style="-inkscape-font-specification:Mojangles;fill:#ffffff;paint-order:markers stroke fill"
       d="m 3902.013,898.02496 v -8.013 h 2.001 v 8.013 z m 0,-10.014 v -2.00099 h 2.001 v 2.00099 z m -8.013,10.014 v -14.02501 h 8.013 v 2.01002 h -6.012 v 2.00099 h 6.012 v 2.001 h -6.012 v 8.013 z m 12.015,-2.001 v -2.00099 h 2.001 v 2.00099 z m 2.001,2.001 v -2.001 h 6.012 v -2.00099 h -6.012 v -2.01001 h 6.012 v -2.001 h 2.001 v 8.013 z m 0,-8.013 v -2.001 h 6.012 v 2.001 z m 18.027,8.013 v -8.013 h 2.001 v 8.013 z m -8.013,0 v -10.014 h 8.013 v 2.001 h -6.012 v 8.013 z m 12.0149,-2.001 v -6.012 h 2.001 v 6.012 z m 2.001,-6.012 v -2.001 h 4.0111 v 2.001 z m 0,8.013 v -2.001 h 6.0121 v -4.011 h -2.001 v -2.001 h 2.001 v -6.01201 h 2.0009 v 14.02501 z m 12.015,0 v -2.001 h 6.0121 v 2.001 z m -2.001,-2.001 v -6.012 h 2.001 v 6.012 z m 8.0131,0 v -6.012 h 2.0009 v 6.012 z m -6.0121,-6.012 v -2.001 h 6.0121 v 2.001 z m 14.016,4.01101 v -4.01101 h 2.0101 v 4.01101 z m 4.011,4.00199 v -8.013 h 2.001 v 8.013 z m -8.013,0 v -10.014 h 4.002 v 2.001 h -2.001 v 8.013 z m 6.0121,-8.013 v -2.001 h 2.0009 v 2.001 z m 11.0054,8.013 v -14.02501 h 10.014 v 2.01002 h -8.013 v 2.00099 h 4.011 v 2.001 h -4.011 v 6.012 h 8.013 v 2.001 z m 16.017,0 v -2.001 h 2.01 v 2.001 z m -2.001,-2.001 v -2.00099 h 2.001 v 2.00099 z m 4.011,0 v -2.00099 h 2.001 v 2.00099 z m -6.012,-2.00099 v -6.01201 h 2.001 v 6.01201 z m 8.013,0 v -6.01201 h 2.001 v 6.01201 z m 6.003,4.00199 v -2.001 h 8.013 v 2.001 z m -2.001,-2.001 v -6.012 h 2.001 v 2.001 h 6.012 v -2.001 h 2.001 v 4.01101 h -8.013 v 2.00099 z m 2.001,-6.012 v -2.001 h 6.012 v 2.001 z m 18.027,8.013 v -8.013 h 2.001 v 8.013 z m -8.013,0 v -10.014 h 8.013 v 2.001 h -6.012 v 8.013 z m 16.017,0 v -2.001 h 2.01 v 2.001 z m -2.001,-2.001 v -6.012 h -2.001 v -2.001 h 2.001 v -4.01101 h 2.001 v 4.01101 h 2.01 v 2.001 h -2.01 v 6.012 z m 6.003,2.001 v -2.001 h 8.013 v 2.001 z m 8.013,-2.001 v -2.00099 h 2.001 v 2.00099 z m -6.012,-2.00099 v -2.01001 h 6.012 v 2.01001 z m -2.001,-2.01001 v -2.001 h 2.001 v 2.001 z m 2.001,-2.001 v -2.001 h 8.013 v 2.001 z"
       id="path49" /></g></svg>
