<?xml version="1.0" encoding="UTF-8" standalone="no"?>
<!-- Created with Inkscape (http://www.inkscape.org/) -->

<svg
   version="1.1"
   id="svg1"
   width="110"
   height="38"
   viewBox="0 0 110 38.000002"
   xml:space="preserve"
   xmlns="http://www.w3.org/2000/svg"
   xmlns:svg="http://www.w3.org/2000/svg"><defs
     id="defs1" /><g
     id="layer1"
     transform="translate(-3620,-821.99995)"><path
       id="path9863"
       style="display:inline;opacity:1;fill:#45e6a0;fill-opacity:1;stroke-width:22.2107;paint-order:markers stroke fill"
       d="m 3620,821.99995 110.0001,3 -2,31 -103.327,4 z" /><g
       id="text9863"><path
         style="-inkscape-font-specification:Mojangles;fill-opacity:0.471606;paint-order:markers stroke fill"
         d="m 3638.3105,830.33594 v 2.00976 h -2.0019 v 17.31641 h 2.0019 v 2.00195 h 73.3809 v -2.00195 h 2 v -15.31445 h -14.0156 v -4.01172 h -19.3086 v 4.01172 h -26.7422 v -2.00196 h -2 v -2.00976 z"
         id="path9" /><path
         style="-inkscape-font-specification:Mojangles;fill:#ffffff;paint-order:markers stroke fill"
         d="m 3641.9611,848.01245 v -2.00099 h 6.012 v 2.00099 z m 6.012,-2.00099 v -2.001 h 2.001 v 2.001 z m -8.013,0 v -10.014 h 2.001 v 10.014 z m 8.013,-8.01301 v -2.00099 h 2.001 v 2.00099 z m -6.012,-2.00099 v -2.01001 h 6.012 v 2.01001 z m 18.027,6.00299 v -2.001 h 2.001 v 2.001 z m -8.013,6.012 v -10.014 h 2.001 v 2.001 h 2.001 v 2.001 h -2.001 v 6.012 z m 4.002,-8.013 v -2.001 h 4.011 v 2.001 z m 10.014,8.013 v -2.00099 h 8.013 v 2.00099 z m -2.001,-2.00099 v -6.01201 h 2.001 v 2.001 h 6.012 v -2.001 h 2.001 v 4.01101 h -8.013 v 2.001 z m 2.001,-6.01201 v -2.001 h 6.012 v 2.001 z m 10.014,6.01201 v -6.01201 h 2.001 v 6.01201 z m 2.001,-6.01201 v -2.001 h 4.011 v 2.001 z m 0,8.013 v -2.00099 h 6.012 v -4.01101 h -2.001 v -2.001 h 2.001 v -6.012 h 2.001 v 14.025 z m 10.014,0 v -10.014 h 2.001 v 10.014 z m 0,-12.01499 v -2.01001 h 2.001 v 2.01001 z m 8.0039,12.01499 v -2.00099 h 2.0101 v 2.00099 z m -2.001,-2.00099 v -6.01201 h -2.0009 v -2.001 h 2.0009 v -4.011 h 2.001 v 4.011 h 2.0101 v 2.001 h -2.0101 v 6.01201 z m 6.003,2.00099 v -2.00099 h 8.013 v 2.00099 z m 8.013,-2.00099 v -2.001 h 2.001 v 2.001 z m -6.012,-2.001 v -2.01001 h 6.012 v 2.01001 z m -2.001,-2.01001 v -2.001 h 2.001 v 2.001 z m 2.001,-2.001 v -2.001 h 8.013 v 2.001 z"
         id="path10" /></g></g></svg>
