<?xml version="1.0" encoding="UTF-8" standalone="no"?>
<!-- Created with Inkscape (http://www.inkscape.org/) -->

<svg
   version="1.1"
   id="svg1"
   width="84.807373"
   height="38"
   viewBox="0 0 84.807373 38.000002"
   xml:space="preserve"
   xmlns="http://www.w3.org/2000/svg"
   xmlns:svg="http://www.w3.org/2000/svg"><defs
     id="defs1" /><g
     id="layer1"
     transform="translate(-3510,-871.99995)"><path
       id="path12"
       style="display:inline;opacity:1;fill:#433299;fill-opacity:1;stroke-width:29.7135;paint-order:markers stroke fill"
       d="m 3592.7163,878.74363 -78.7631,-6.74368 -3.9532,38 84.8074,-3.54949 z" /><g
       id="g16"
       transform="matrix(0.25694868,0,0,0.25694868,2905.2741,909.05752)"><path
         style="-inkscape-font-specification:Mojangles;fill-opacity:0.471606;paint-order:markers stroke fill"
         d="m 2440.4082,-111.73047 v 83.003908 h 160.9141 V -111.73047 H 2487.168 v 46.794923 h -10.5508 v -46.794923 z"
         id="path15" /><path
         style="-inkscape-font-specification:Mojangles;fill:#ffffff;paint-order:markers stroke fill"
         d="m 2454.6184,-42.936958 v -54.582768 h 7.7875 v 46.795252 h 31.1851 v 7.787516 z m 77.9453,0 V -74.1221 h 7.7875 v 31.185142 z m 0,-38.972658 v -7.787515 h 7.7875 v 7.787515 z m -31.1851,38.972658 v -54.582768 h 31.1851 v 7.822595 h -23.3976 v 7.787515 h 23.3976 v 7.787516 h -23.3976 v 31.185142 z m 62.3352,-31.185142 v -7.787516 h 7.8226 v 7.787516 z m -15.5751,31.185142 v -54.582768 h 7.7876 v 7.822595 h 7.7875 v 7.787515 h -7.7875 v 38.972658 z m 31.1852,0 v -38.972658 h -7.7875 v -7.787515 h 7.7875 v -7.822595 h 7.7875 v 54.582768 z"
         id="path16" /></g></g></svg>
