<?xml version="1.0" encoding="UTF-8" standalone="no"?>
<!-- Created with Inkscape (http://www.inkscape.org/) -->

<svg
   version="1.1"
   id="svg1"
   width="128.41309"
   height="38"
   viewBox="0 0 128.41309 38.000002"
   xml:space="preserve"
   xmlns="http://www.w3.org/2000/svg"
   xmlns:svg="http://www.w3.org/2000/svg"><defs
     id="defs1" /><g
     id="layer1"
     transform="translate(-3369.9999,-821.99995)"><path
       id="path9850"
       style="display:inline;opacity:1;fill:#e7a338;fill-opacity:1;stroke-width:22.582;paint-order:markers stroke fill"
       d="m 3375.049,821.99995 123.364,2.41103 -6.2279,29.80474 L 3370,859.99995 Z" /><g
       id="text9851"
       transform="matrix(0.25694868,0,0,0.25694868,2786.4736,799.52971)"><path
         style="-inkscape-font-specification:Mojangles;fill-opacity:0.471606;paint-order:markers stroke fill"
         d="m 2326.4355,119.68359 v 7.82422 h -7.7871 v 67.39453 h 7.7871 v 7.78711 l 386.7016,-9e-5 v -83.00577 h -199.6605 v 15.61133 h -111.8575 v -15.61133 z"
         id="path9852" /><path
         style="-inkscape-font-specification:Mojangles;fill:#ffffff;paint-order:markers stroke fill"
         d="m 2340.6471,188.47821 v -7.78752 h 23.3977 v 7.78752 z m 23.3977,-7.78752 v -7.78751 h 7.7875 v 7.78751 z m -31.1852,0 v -38.97265 h 7.7875 v 38.97265 z m 31.1852,-31.18514 v -7.78751 h 7.7875 v 7.78751 z m -23.3977,-7.78751 v -7.8226 h 23.3977 v 7.8226 z m 70.1578,46.76017 v -31.18514 h 7.7876 v 31.18514 z m -15.6101,-31.18514 v -7.78752 h 15.6101 v 7.78752 z m -15.575,31.18514 v -54.58277 h 7.7875 v 23.39763 h 7.7875 v 7.78751 h -7.7875 v 23.39763 z m 54.5477,0 v -7.78752 h 31.1851 v 7.78752 z m -7.7875,-7.78752 v -23.39762 h 7.7875 v 7.78751 h 23.3976 v -7.78751 h 7.7875 v 15.61011 h -31.1851 v 7.78751 z m 7.7875,-23.39762 v -7.78752 h 23.3976 v 7.78752 z m 38.9727,31.18514 v -7.78752 h 31.1851 v 7.78752 z m 31.1851,-7.78752 v -7.78751 h 7.7875 v 7.78751 z m -23.3976,-7.78751 v -7.8226 h 23.3976 v 7.8226 z m -7.7875,-7.8226 v -7.78751 h 7.7875 v 7.78751 z m 7.7875,-7.78751 v -7.78752 h 31.1851 v 7.78752 z m 54.5477,31.18514 v -7.78752 h 7.8226 v 7.78752 z m -7.7876,-7.78752 v -23.39762 h -7.7875 v -7.78752 h 7.7875 v -15.61011 h 7.7876 v 15.61011 h 7.8226 v 7.78752 h -7.8226 v 23.39762 z m 54.5478,0 v -23.39762 h 7.7875 v 23.39762 z m 0,-31.18514 v -7.78751 h 7.7875 v 7.78751 z m -31.1852,38.97266 v -54.58277 h 31.1852 v 7.8226 h -23.3977 v 7.78751 h 23.3977 v 7.78752 h -23.3977 v 23.39762 h 23.3977 v 7.78752 z m 62.3352,0 v -46.76017 h -15.575 v -7.8226 h 38.9726 v 7.8226 h -15.575 v 46.76017 z m 31.1852,0 v -46.76017 h 7.7875 v 7.78751 h 23.3976 v -7.78751 h 7.7875 v 46.76017 h -7.7875 v -31.18514 h -23.3976 v 31.18514 z m 7.7875,-46.76017 v -7.8226 h 23.3976 v 7.8226 z m 38.9433,39.13613 h 7.7837 v 7.78366 h -7.7837 z m 0,-46.70193 h 7.7837 v 38.91828 h -7.7837 z"
         id="path9853" /></g></g></svg>
