<?xml version="1.0" encoding="UTF-8" standalone="no"?>
<!-- Created with Inkscape (http://www.inkscape.org/) -->

<svg
   version="1.1"
   id="svg1"
   width="107"
   height="38"
   viewBox="0 0 107 38.000002"
   xml:space="preserve"
   xmlns="http://www.w3.org/2000/svg"
   xmlns:svg="http://www.w3.org/2000/svg"><defs
     id="defs1" /><g
     id="layer1"
     transform="translate(-3750,-871.99995)"><path
       id="path40"
       style="display:inline;opacity:1;fill:#8bad19;fill-opacity:1;stroke-width:33.9259;paint-order:markers stroke fill"
       d="m 3752,909.99995 105,-5 -5,-33 -102,1 z" /><g
       id="g42"
       transform="translate(-20.0079,50.012508)"><path
         style="-inkscape-font-specification:Mojangles;fill-opacity:0.471606;paint-order:markers stroke fill"
         d="m 3785.3555,830.33594 v 21.32812 h 73.3828 v -15.3164 h -2.002 v -2 h -12.0156 v -4.01172 h -9.3027 v 4.01172 h -32.7442 v -2.00196 h -2.0019 v -2.00976 z"
         id="path41" /><path
         style="-inkscape-font-specification:Mojangles;fill:#ffffff;paint-order:markers stroke fill"
         d="m 3797.0209,846.01145 v -10.01399 h 2.001 v 10.01399 z m -8.013,2.001 v -14.02501 h 8.013 v 2.01002 h -6.012 v 10.01399 h 6.012 v 2.001 z m 14.016,0 v -2.001 h 6.012 v 2.001 z m -2.001,-2.001 v -6.012 h 2.001 v 6.012 z m 8.013,0 v -6.012 h 2.001 v 6.012 z m -6.012,-6.012 v -2.001 h 6.012 v 2.001 z m 18.027,8.013 v -8.013 h 2.001 v 8.013 z m -8.013,0 v -10.014 h 8.013 v 2.001 h -6.012 v 8.013 z m 12.015,-2.001 v -2.00099 h 2.001 v 2.00099 z m 2.001,2.001 v -2.001 h 6.012 v -2.00099 h -6.012 v -2.01001 h 6.012 v -2.001 h 2.001 v 8.013 z m 0,-8.013 v -2.001 h 6.012 v 2.001 z m 14.016,8.013 v -2.001 h 2.01 v 2.001 z m -2.001,-2.001 v -6.012 h -2.001 v -2.001 h 2.001 v -4.01101 h 2.001 v 4.01101 h 2.01 v 2.001 h -2.01 v 6.012 z m 8.004,2.001 v -2.001 h 8.013 v 2.001 z m -2.001,-2.001 v -6.012 h 2.001 v 2.001 h 6.012 v -2.001 h 2.001 v 4.01101 h -8.013 v 2.00099 z m 2.001,-6.012 v -2.001 h 6.012 v 2.001 z"
         id="path42" /></g></g></svg>
