<?xml version="1.0" encoding="UTF-8" standalone="no"?>
<!-- Created with Inkscape (http://www.inkscape.org/) -->

<svg
   version="1.1"
   id="svg1"
   width="170"
   height="38"
   viewBox="0 0 170 38.000002"
   sodipodi:docname="chestbta-branding.svg"
   inkscape:version="1.4 (e7c3feb100, 2024-10-09)"
   xml:space="preserve"
   xmlns:inkscape="http://www.inkscape.org/namespaces/inkscape"
   xmlns:sodipodi="http://sodipodi.sourceforge.net/DTD/sodipodi-0.dtd"
   xmlns="http://www.w3.org/2000/svg"
   xmlns:svg="http://www.w3.org/2000/svg"><defs
     id="defs1" /><sodipodi:namedview
     id="namedview1"
     pagecolor="#505050"
     bordercolor="#eeeeee"
     borderopacity="1"
     inkscape:showpageshadow="0"
     inkscape:pageopacity="0"
     inkscape:pagecheckerboard="0"
     inkscape:deskcolor="#505050"
     inkscape:clip-to-page="false"
     inkscape:zoom="2.4257709"
     inkscape:cx="3241.0315"
     inkscape:cy="1058.8386"
     inkscape:current-layer="layer1"
     showgrid="false"><inkscape:grid
       id="grid11236"
       units="px"
       originx="-4379.792"
       originy="-872"
       spacingx="1"
       spacingy="1"
       empcolor="#0099e5"
       empopacity="0.30196078"
       color="#0099e5"
       opacity="0.14901961"
       empspacing="10"
       enabled="true"
       visible="false" /><inkscape:page
       x="0"
       y="0"
       width="170"
       height="38.000004"
       id="page1"
       margin="0"
       bleed="0" /></sodipodi:namedview><g
     inkscape:groupmode="layer"
     id="layer1"
     inkscape:label="Image 1"
     transform="translate(-4379.792,-871.99995)"><path
       id="path30"
       style="display:inline;opacity:1;fill:#b4a215;fill-opacity:1;stroke-width:25.8928;paint-order:markers stroke fill"
       d="m 4549.792,871.99994 -170,3 6,35.00001 159,-3.00001 z"
       sodipodi:nodetypes="ccccc"
       inkscape:export-filename="../Descargas/Descargas/Descargas/Descargas/Descargas/Descargas/Descargas/Descargas/chestbta-assets/button-screenshots-h.svg"
       inkscape:export-xdpi="96"
       inkscape:export-ydpi="96" /><g
       id="text30"><path
         style="-inkscape-font-specification:Mojangles;fill-opacity:0.471606;paint-order:markers stroke fill"
         d="m 4400.0664,880.33594 v 2.00976 h -2.0019 v 17.31641 h 2.0019 v 2.00195 h 129.4531 v -2.00195 h 2 v -15.31445 h -14.0156 v -4.01172 h -9.3027 v 4.01172 h -16.7285 v -4.01172 h -9.3028 v 4.01172 h -66.789 v -4.01172 z"
         id="path32"
         sodipodi:nodetypes="ccccccccccccccccccccc" /><path
         style="-inkscape-font-specification:Mojangles;fill:#ffffff;paint-order:markers stroke fill"
         d="m 4403.717,898.01239 v -2.001 h 6.012 v 2.001 z m -2.001,-2.001 v -2.00099 h 2.001 v 2.00099 z m 8.013,0 v -6.012 h 2.001 v 6.012 z m -6.012,-6.012 v -2.001 h 6.012 v 2.001 z m -2.001,-2.001 v -2.001 h 2.001 v 2.001 z m 2.001,-2.001 v -2.01001 h 8.013 v 2.01001 z m 12.015,12.015 v -2.001 h 6.012 v 2.001 z m 6.012,-2.001 v -2.00099 h 2.001 v 2.00099 z m -8.013,0 v -6.012 h 2.001 v 6.012 z m 8.013,-4.011 v -2.001 h 2.001 v 2.001 z m -6.012,-2.001 v -2.001 h 6.012 v 2.001 z m 18.027,2.001 v -2.001 h 2.001 v 2.001 z m -8.013,6.012 v -10.014 h 2.001 v 2.001 h 2.001 v 2.001 h -2.001 v 6.012 z m 4.002,-8.013 v -2.001 h 4.011 v 2.001 z m 10.014,8.013 v -2.001 h 8.013 v 2.001 z m -2.001,-2.001 v -6.012 h 2.001 v 2.001 h 6.012 v -2.001 h 2.001 v 4.01101 h -8.013 v 2.00099 z m 2.001,-6.012 v -2.001 h 6.012 v 2.001 z m 12.015,8.013 v -2.001 h 8.013 v 2.001 z m -2.001,-2.001 v -6.012 h 2.001 v 2.001 h 6.012 v -2.001 h 2.001 v 4.01101 h -8.013 v 2.00099 z m 2.001,-6.012 v -2.001 h 6.012 v 2.001 z m 18.027,8.013 v -8.013 h 2.001 v 8.013 z m -8.013,0 v -10.014 h 8.013 v 2.001 h -6.012 v 8.013 z m 12.015,0 v -2.001 h 8.013 v 2.001 z m 8.013,-2.001 v -2.00099 h 2.001 v 2.00099 z m -6.012,-2.00099 v -2.01001 h 6.012 v 2.01001 z m -2.001,-2.01001 v -2.001 h 2.001 v 2.001 z m 2.001,-2.001 v -2.001 h 8.013 v 2.001 z m 18.027,8.013 v -8.013 h 2.001 v 8.013 z m -4.011,-8.013 v -2.001 h 4.011 v 2.001 z m -4.002,8.013 v -14.02501 h 2.001 v 6.01201 h 2.001 v 2.001 h -2.001 v 6.012 z m 14.016,0 v -2.001 h 6.012 v 2.001 z m -2.001,-2.001 v -6.012 h 2.001 v 6.012 z m 8.013,0 v -6.012 h 2.001 v 6.012 z m -6.012,-6.012 v -2.001 h 6.012 v 2.001 z m 14.016,8.013 v -2.001 h 2.01 v 2.001 z m -2.001,-2.001 v -6.012 h -2.001 v -2.001 h 2.001 v -4.01101 h 2.001 v 4.01101 h 2.01 v 2.001 h -2.01 v 6.012 z m 6.003,2.001 v -2.001 h 8.013 v 2.001 z m 8.013,-2.001 v -2.00099 h 2.001 v 2.00099 z m -6.012,-2.00099 v -2.01001 h 6.012 v 2.01001 z m -2.001,-2.01001 v -2.001 h 2.001 v 2.001 z m 2.001,-2.001 v -2.001 h 8.013 v 2.001 z"
         id="path33" /></g></g></svg>
