<?xml version="1.0" encoding="UTF-8" standalone="no"?>
<!-- Created with Inkscape (http://www.inkscape.org/) -->

<svg
   version="1.1"
   id="svg1"
   width="188"
   height="38"
   viewBox="0 0 188 38.000002"
   xml:space="preserve"
   xmlns="http://www.w3.org/2000/svg"
   xmlns:svg="http://www.w3.org/2000/svg"><defs
     id="defs1" /><g
     id="layer1"
     transform="translate(-4080,-821.99995)"><path
       id="path21"
       style="display:inline;opacity:1;fill:#1bd96a;fill-opacity:1;stroke-width:44.1779;paint-order:markers stroke fill"
       d="m 4265.6384,825.54273 -181.2161,-3.54278 -4.4223,38 188,-3.53952 z" /><g
       id="text21"
       transform="translate(0.36,-0.04101859)"><path
         style="-inkscape-font-specification:Mojangles;fill-opacity:0.471606;paint-order:markers stroke fill"
         d="m 4093.9883,830.38867 v 21.32813 h 159.4785 v -15.31446 h -2.002 v -2.00195 h -6.0117 v -4.01172 h -15.3066 v 4.01172 h -8.7149 v -4.01172 h -9.3027 v 4.01172 h -6.7129 v -4.01172 h -9.3047 v 4.01172 h -14.7265 v -4.01172 h -17.3164 v 6.01367 h -1.7012 v -2.00195 h -25.3301 v 2.00195 h -1.7012 v -6.01367 h -29.332 v 12.02539 h -2.7109 v -12.02539 z"
         id="path23" /><path
         style="-inkscape-font-specification:Mojangles;fill:#ffffff;paint-order:markers stroke fill"
         d="m 4097.64,848.06598 v -14.02501 h 2.001 v 12.02401 h 8.013 v 2.001 z m 20.028,0 v -8.013 h 2.001 v 8.013 z m 0,-10.014 v -2.001 h 2.001 v 2.001 z m -8.013,10.014 v -14.02501 h 8.013 v 2.01001 h -6.012 v 2.001 h 6.012 v 2.001 h -6.012 v 8.013 z m 16.017,-8.013 v -2.001 h 2.01 v 2.001 z m -4.002,8.013 v -14.02501 h 2.001 v 2.01001 h 2.001 v 2.001 h -2.001 v 10.014 z m 8.013,0 v -10.014 h -2.001 v -2.001 h 2.001 v -2.01001 h 2.001 v 14.02501 z m 11.0055,0 v -2.001 h 6.012 v 2.001 z m -2.001,-2.001 v -6.012 h 2.001 v 6.012 z m 8.013,0 v -6.012 h 2.001 v 6.012 z m -6.012,-6.012 v -2.001 h 6.012 v 2.001 z m 18.027,8.013 v -8.013 h 2.001 v 8.013 z m -8.013,0 v -10.014 h 8.013 v 2.001 h -6.0121 v 8.013 z m 21.0194,-8.013 v -2.001 h 2.0101 v 2.001 z m -4.002,8.013 v -14.02501 h 2.001 v 2.01001 h 2.001 v 2.001 h -2.001 v 10.014 z m 8.013,0 v -10.014 h -2.0009 v -2.001 h 2.0009 v -2.01001 h 2.001 v 14.02501 z m 6.003,0 v -2.001 h 6.012 v 2.001 z m -2.001,-2.001 v -6.012 h 2.001 v 6.012 z m 8.013,0 v -6.012 h 2.001 v 6.012 z m -6.012,-6.012 v -2.001 h 6.012 v 2.001 z m 10.014,6.012 v -6.012 h 2.001 v 6.012 z m 2.001,-6.012 v -2.001 h 4.011 v 2.001 z m 0,8.013 v -2.001 h 6.012 v -4.01101 h -2.001 v -2.00099 h 2.001 v -6.01201 h 2.001 v 14.02501 z m 18.027,-6.01201 v -2.00099 h 2.001 v 2.00099 z m -8.013,6.01201 v -10.014 h 2.001 v 2.001 h 2.001 v 2.00099 h -2.001 v 6.01201 z m 4.002,-8.013 v -2.001 h 4.011 v 2.001 z m 8.013,8.013 v -10.014 h 2.001 v 10.014 z m 0,-12.015 v -2.01001 h 2.001 v 2.01001 z m 12.015,12.015 v -8.013 h 2.001 v 8.013 z m -8.013,0 v -10.014 h 8.013 v 2.001 h -6.012 v 8.013 z m 16.017,0 v -2.001 h 2.01 v 2.001 z m -2.001,-2.001 v -6.012 h -2.001 v -2.001 h 2.001 v -4.01101 h 2.001 v 4.01101 h 2.01 v 2.001 h -2.01 v 6.012 z m 14.016,2.001 v -8.013 h 2.001 v 8.013 z m -4.011,-8.013 v -2.001 h 4.011 v 2.001 z m -4.002,8.013 v -14.02501 h 2.001 v 6.01201 h 2.001 v 2.00099 h -2.001 v 6.01201 z"
         id="path24" /></g></g></svg>
